<?xml version="1.0" encoding="utf-8"?>
<!-- Generator: Adobe Illustrator 28.0.0, SVG Export Plug-In . SVG Version: 6.00 Build 0)  -->
<svg version="1.1" id="图层_1" xmlns="http://www.w3.org/2000/svg" xmlns:xlink="http://www.w3.org/1999/xlink" x="0px" y="0px"
	 viewBox="0 0 100 125" style="enable-background:new 0 0 100 125;" xml:space="preserve">
<style type="text/css">
	.st0{fill:#FB9700;}
</style>
<path class="st0" d="M54.3,21.2c4.3,0,7.8-3.5,7.8-7.8s-3.5-7.8-7.8-7.8s-7.8,3.5-7.8,7.8S50.1,21.2,54.3,21.2z"/>
<path class="st0" d="M75.9,48.9c-0.4-1-1.2-1.8-2.2-2.2l-9-3.8l-8.1-15.1c-0.1-0.1-0.2-0.3-0.3-0.4l0,0c-1-1.5-2.5-2.6-4.4-3
	c-1.8-0.4-3.6,0-5.1,1.1L32,34.3c-0.8,0.5-1.4,1.2-1.7,2.1l-4.9,13.3c-0.4,1-0.3,2.1,0.1,3.1s1.3,1.7,2.3,2.1
	c0.5,0.2,0.9,0.2,1.4,0.2c1.7,0,3.2-1.1,3.8-2.7l4.3-11.9l5.3-3.1l-2.5,13c0,0.2,0,0.3-0.1,0.5l0,0l-4,20.2L24.6,87
	c-1.5,2.1-1,4.9,1.1,6.4c0.8,0.6,1.7,0.8,2.7,0.8c1.5,0,2.9-0.7,3.8-1.9L44,75.6c0.4-0.5,0.6-1.1,0.8-1.7l2.5-12.2l9.6,9.8l2.5,18.8
	c0.3,2.3,2.3,4,4.6,4c0.2,0,0.4,0,0.6,0c2.5-0.3,4.3-2.6,4-5.2l-2.7-20.3c-0.1-1-0.6-1.9-1.3-2.6L53.1,54.4l1.9-10l0.4-2l2.9,5.5
	c0.4,0.8,1.1,1.5,2,1.8l10.3,4.4c0.5,0.2,1,0.3,1.6,0.3c1.6,0,3.1-1,3.7-2.5C76.3,51,76.3,49.9,75.9,48.9L75.9,48.9z"/>
</svg>
